<?xml version="1.0" encoding="UTF-8" standalone="no"?>
<svg width="16px" height="16px" viewBox="0 0 16 16" version="1.1" xmlns="http://www.w3.org/2000/svg" xmlns:xlink="http://www.w3.org/1999/xlink" xmlns:sketch="http://www.bohemiancoding.com/sketch/ns">
    <!-- Generator: Sketch 3.4 (15575) - http://www.bohemiancoding.com/sketch -->
    <title>icon-os-js</title>
    <desc>Created with Sketch.</desc>
    <defs></defs>
    <g id="Page-1" stroke="none" stroke-width="1" fill="none" fill-rule="evenodd" sketch:type="MSPage">
        <g id="icon-os-js" sketch:type="MSLayerGroup">
            <g id="group" sketch:type="MSShapeGroup">
                <rect id="shape" fill="#FFC426" x="0" y="0" width="16" height="16" rx="2"></rect>
                <path d="M4.58572049,12.7727865 C4.58572049,12.6391052 4.63281203,12.5251741 4.72699653,12.4309896 C4.82118103,12.3368051 4.93511218,12.2897135 5.0687934,12.2897135 C5.1295576,12.2897135 5.20095445,12.3049044 5.28298611,12.3352865 C5.52300467,12.429471 5.74782881,12.4765625 5.95746528,12.4765625 C6.25520982,12.4765625 6.47395763,12.3770626 6.61371528,12.1780599 C6.75347292,11.9790572 6.82335069,11.7109392 6.82335069,11.3736979 L6.82335069,7.51822917 C6.82335069,7.36631868 6.87651857,7.23795625 6.9828559,7.13313802 C7.08919324,7.02831979 7.21679613,6.97591146 7.3656684,6.97591146 C7.51454067,6.97591146 7.64214357,7.02831979 7.7484809,7.13313802 C7.85481824,7.23795625 7.90798611,7.36631868 7.90798611,7.51822917 L7.90798611,11.3736979 C7.90798611,11.6835953 7.87228768,11.9608278 7.80088976,12.2054036 C7.72949183,12.4499795 7.61935838,12.6679678 7.47048611,12.859375 C7.32161384,13.0507822 7.11881639,13.1981332 6.86208767,13.3014323 C6.60535896,13.4047314 6.30382118,13.4563802 5.95746528,13.4563802 C5.76301986,13.4563802 5.56022241,13.4328344 5.34906684,13.3857422 C5.13791127,13.3386499 4.97005271,13.2771271 4.84548611,13.2011719 C4.67230816,13.1130638 4.58572049,12.9702701 4.58572049,12.7727865 L4.58572049,12.7727865 Z M8.7328559,12.061849 C8.7328559,11.9251295 8.78222607,11.8074007 8.88096788,11.7086589 C8.9797097,11.609917 9.09591947,11.5605469 9.22960069,11.5605469 C9.36632013,11.5605469 9.50303751,11.6289056 9.63975694,11.765625 C10.1137176,12.2395857 10.6241292,12.4765625 11.1710069,12.4765625 C12.0095528,12.4765625 12.4288194,12.189456 12.4288194,11.6152344 C12.4288194,11.4694003 12.3900829,11.3402783 12.3126085,11.2278646 C12.2351342,11.1154508 12.1303175,11.0212677 11.9981554,10.9453125 C11.8659933,10.8693573 11.7148446,10.7994795 11.5447049,10.7356771 C11.3745651,10.6718747 11.1953134,10.6095923 11.0069444,10.5488281 C10.8185754,10.4880639 10.6309688,10.4235029 10.4441189,10.3551432 C10.257269,10.2867835 10.0787769,10.2024745 9.90863715,10.1022135 C9.73849741,10.0019526 9.58734875,9.88802147 9.45518663,9.76041667 C9.32302451,9.63281186 9.21820785,9.47254871 9.14073351,9.2796224 C9.06325916,9.08669608 9.02452257,8.87022689 9.02452257,8.63020833 C9.02452257,8.13498016 9.20605287,7.7263471 9.56911892,7.40429688 C9.93218498,7.08224665 10.4661423,6.92122396 11.1710069,6.92122396 C11.635853,6.92122396 12.0581578,7.00097576 12.437934,7.16048177 C12.8177102,7.31998778 13.1017786,7.5334188 13.2901476,7.80078125 C13.3509118,7.89192754 13.3812934,7.99066787 13.3812934,8.09700521 C13.3812934,8.23372464 13.3319232,8.35069396 13.2331814,8.44791667 C13.1344396,8.54513937 13.0167108,8.59375 12.8799913,8.59375 C12.7584629,8.59375 12.6247837,8.52539131 12.4789497,8.38867188 C12.3270392,8.24283781 12.1348753,8.12358987 11.9024523,8.03092448 C11.6700292,7.93825909 11.4262166,7.89192708 11.1710069,7.89192708 C10.80946,7.89192708 10.541342,7.9625644 10.366645,8.10384115 C10.1919479,8.24511789 10.1046007,8.42057187 10.1046007,8.63020833 C10.1046007,8.76085135 10.1433373,8.87630158 10.2208116,8.9765625 C10.298286,9.07682342 10.4031026,9.16189201 10.5352648,9.23177083 C10.6674269,9.30164965 10.8185755,9.36697018 10.9887153,9.42773438 C11.158855,9.48849857 11.3381067,9.55002139 11.5264757,9.61230469 C11.7148447,9.67458799 11.9032109,9.74142759 12.0915799,9.81282552 C12.2799489,9.88422345 12.4592005,9.97233021 12.6293403,10.0771484 C12.79948,10.1819667 12.9506287,10.3019742 13.0827908,10.4371745 C13.2149529,10.5723748 13.3197696,10.7402334 13.3972439,10.9407552 C13.4747183,11.141277 13.5134549,11.3661012 13.5134549,11.6152344 C13.5134549,12.1955324 13.312936,12.6489784 12.9118924,12.9755859 C12.5108487,13.3021935 11.9305594,13.4654948 11.1710069,13.4654948 C10.6453967,13.4654948 10.169924,13.3546018 9.74457465,13.1328125 C9.3192253,12.9110232 9.00781349,12.6421457 8.81032986,12.3261719 C8.7586803,12.2441402 8.7328559,12.1560335 8.7328559,12.061849 L8.7328559,12.061849 Z" id="shape" fill="#FFFFFF"></path>
            </g>
        </g>
    </g>
</svg>