<?xml version="1.0" encoding="UTF-8" standalone="no"?>
<svg width="21px" height="24px" viewBox="0 0 21 24" version="1.1" xmlns="http://www.w3.org/2000/svg" xmlns:xlink="http://www.w3.org/1999/xlink" xmlns:sketch="http://www.bohemiancoding.com/sketch/ns">
    <!-- Generator: Sketch 3.2.2 (9983) - http://www.bohemiancoding.com/sketch -->
    <title>Polygon 1</title>
    <desc>Created with Sketch.</desc>
    <defs></defs>
    <g id="Page-1" stroke="none" stroke-width="1" fill="none" fill-rule="evenodd" sketch:type="MSPage">
        <path d="M10.5,0 L21,6 L21,18 L10.5,24 L6.21264868e-15,18 L-6.21264868e-16,6 L10.5,0 Z M5.13894797,12.2420045 C5.10484896,12.0342206 5.1635761,11.813076 5.31217792,11.6566329 L8.9045175,7.87473456 C9.15109168,7.61514927 9.55006463,7.61430412 9.79950592,7.8769078 C10.0472202,8.13769333 10.0436548,8.56426376 9.80157023,8.81912251 L6.55215615,12.24 L9.80390134,15.6633316 C10.0504755,15.9229169 10.0512783,16.3429426 9.80183703,16.6055463 C9.55412276,16.8663319 9.14893317,16.8625783 8.90684861,16.6077196 L5.31450903,12.8258213 C5.16365372,12.6670057 5.10479195,12.4481364 5.13894797,12.2420045 L5.13894797,12.2420045 Z M16.3093565,12.2521204 C16.3486096,12.0419083 16.2906096,11.8166272 16.1364515,11.6541787 L12.5475586,7.87228044 C12.3057063,7.61742169 11.9009054,7.61366815 11.6534288,7.87445368 C11.4042268,8.13705736 11.4050289,8.55708311 11.6513665,8.81666839 L14.897663,12.2375459 L11.6490376,15.6608775 C11.4071853,15.9157362 11.4036233,16.3423067 11.6510999,16.6030922 C11.9003019,16.8656959 12.2988921,16.8648507 12.5452297,16.6052654 L16.1341226,12.8233671 C16.2792225,12.670464 16.3385515,12.4557544 16.3093565,12.2521204 L16.3093565,12.2521204 Z" id="Polygon-1" fill="#0A83F6" sketch:type="MSShapeGroup"></path>
    </g>
</svg>