<?xml version="1.0" encoding="UTF-8" standalone="no"?>
<svg width="39px" height="39px" viewBox="0 0 39 39" version="1.1" xmlns="http://www.w3.org/2000/svg" xmlns:xlink="http://www.w3.org/1999/xlink" xmlns:sketch="http://www.bohemiancoding.com/sketch/ns">
    <!-- Generator: Sketch 3.4 (15575) - http://www.bohemiancoding.com/sketch -->
    <title>wrench-one</title>
    <desc>Created with Sketch.</desc>
    <defs></defs>
    <g id="Page-1" stroke="none" stroke-width="1" fill="none" fill-rule="evenodd" sketch:type="MSPage">
        <g id="Rectangle-1-+-wrench-one" sketch:type="MSLayerGroup" transform="translate(-15.000000, -15.000000)" fill="#FFFFFF">
            <path d="M41.5308571,32.0281986 L27.5801608,45.9788949 L27.5801608,45.9788949 C27.8082535,47.8412002 27.2075412,49.7856711 25.7780237,51.2151885 C23.3124017,53.6808105 19.3148385,53.6808105 16.8492165,51.2151885 C14.3835945,48.7495665 14.3835945,44.7520033 16.8492165,42.2863813 C18.278734,40.8568639 20.2232049,40.2561515 22.0855102,40.4842443 L36.0362065,26.533548 C35.0123234,23.4866684 35.7139171,19.9875241 38.1409876,17.5604536 C40.568058,15.1333832 44.0672023,14.4317895 47.1140819,15.4556725 L41.2317285,21.3380259 L46.7263791,26.8326765 L52.6087325,20.9503231 C53.6326156,23.9972027 52.9310219,27.496347 50.5039514,29.9234175 C48.0768809,32.3504879 44.5777367,33.0520816 41.5308571,32.0281986 Z M19.5965418,48.4678632 C20.544858,49.4161794 22.0823823,49.4161794 23.0306984,48.4678632 C23.9790146,47.5195471 23.9790146,45.9820228 23.0306984,45.0337066 C22.0823823,44.0853904 20.544858,44.0853904 19.5965418,45.0337066 C18.6482257,45.9820228 18.6482257,47.5195471 19.5965418,48.4678632 Z" id="wrench-one" sketch:type="MSShapeGroup"></path>
        </g>
    </g>
</svg>