<?xml version="1.0" encoding="UTF-8" standalone="no"?>
<svg width="16px" height="16px" viewBox="0 0 16 16" version="1.1" xmlns="http://www.w3.org/2000/svg" xmlns:xlink="http://www.w3.org/1999/xlink" xmlns:sketch="http://www.bohemiancoding.com/sketch/ns">
    <!-- Generator: Sketch 3.4 (15575) - http://www.bohemiancoding.com/sketch -->
    <title>clojure-f06b497d copy</title>
    <desc>Created with Sketch.</desc>
    <defs></defs>
    <g id="Page-1" stroke="none" stroke-width="1" fill="none" fill-rule="evenodd" sketch:type="MSPage">
        <g id="clojure-f06b497d-copy" sketch:type="MSLayerGroup" fill="#567FDB">
            <g id="Group" sketch:type="MSShapeGroup">
                <path d="M6.59190791,5.92474245 C6.1062446,4.70892662 5.40468489,3.29669065 4.77854388,2.65728921 C4.45987914,2.32308489 4.07201151,2.03425612 3.64436259,1.78790216 C1.69259281,3.15994245 0.415654676,5.4225036 0.410682014,7.98715396 C0.415861871,10.5134734 1.65446906,12.7468201 3.55713381,14.1242475 C4.02373525,12.1855309 5.19396835,10.4098763 6.94766043,6.85110791 C6.84406331,6.56559424 6.72513381,6.25314532 6.59211511,5.92494964 L6.59190791,5.92474245 Z M12.505646,14.1010417 C14.3902849,12.7211281 15.6148029,10.4987626 15.6193612,7.98673957 C15.6119022,3.79934388 12.2141237,0.411096403 8.01471079,0.403430216 C7.18033957,0.404673381 6.37829065,0.541835971 5.62741871,0.790261871 C7.17143022,2.54561151 7.91380719,5.05431942 8.63173525,7.79819281 C8.63463597,7.80357986 8.86296403,8.56356835 9.25497554,9.57156835 C9.64450072,10.578118 10.1997813,11.8243914 10.8047885,12.7323165 C11.2013583,13.340846 11.6383309,13.7778187 11.9356547,13.9062791 C12.0239194,13.9504115 12.2255194,14.0218935 12.505646,14.1010417 Z M8.0145036,15.5708777 C8.85281151,15.5696345 9.65817554,15.431436 10.411741,15.1813525 C10.2347971,15.019741 10.0657266,14.8477698 9.91178129,14.6536288 C8.88989928,13.3536921 8.31949353,11.4487482 7.41757698,8.24593957 C7.27461295,8.55465899 7.11673094,8.90170935 6.95346187,9.27155108 C6.37580432,10.5768748 5.73661007,12.1646043 5.50268777,13.1819281 C5.4187741,13.544518 5.36697554,13.9933007 5.36801151,14.4907741 C5.36801151,14.6876086 5.37878561,14.8948029 5.39536115,15.1055194 C6.21170647,15.4053295 7.09352518,15.5696345 8.0142964,15.5710849 L8.0145036,15.5708777 Z" id="Shape"></path>
            </g>
        </g>
    </g>
</svg>