<svg width="24" height="24" viewBox="0 0 24 24" xmlns="http://www.w3.org/2000/svg"><g fill="none" fill-rule="evenodd"><g fill="#0A83F6"><path d="M3.504 20.496c1.08 1.08 2.35 1.92 3.815 2.545 1.488.65 3.048.96 4.68.96 1.608 0 3.168-.31 4.656-.96 1.49-.624 2.76-1.464 3.84-2.544 1.056-1.08 1.92-2.35 2.544-3.815.65-1.488.96-3.048.96-4.68 0-1.608-.31-3.168-.96-4.656-.624-1.488-1.488-2.76-2.544-3.84-1.08-1.056-2.35-1.92-3.84-2.544C15.168.312 13.608 0 12 0c-1.632 0-3.192.312-4.68.96-1.465.624-2.736 1.488-3.816 2.544-1.08 1.08-1.92 2.352-2.545 3.84C.31 8.832 0 10.392 0 12c0 1.632.31 3.192.96 4.68.624 1.465 1.464 2.736 2.544 3.816zm-.6-13.32L5.52 9.768c-.264.744-.384 1.488-.384 2.233 0 .768.12 1.512.384 2.256L2.903 16.85c-.79-1.538-1.2-3.146-1.2-4.85 0-1.68.41-3.288 1.2-4.824zm9.095-.312c1.416 0 2.616.504 3.624 1.512s1.512 2.208 1.512 3.625c0 1.44-.504 2.64-1.512 3.648S13.416 17.16 12 17.16c-1.44 0-2.64-.504-3.648-1.512C7.344 14.64 6.84 13.44 6.84 12c0-1.416.504-2.616 1.512-3.624C9.36 7.368 10.56 6.864 12 6.864zM9.743 18.48c.744.264 1.488.384 2.255.384.744 0 1.488-.12 2.232-.384l2.592 2.617c-1.535.79-3.144 1.2-4.825 1.2-1.704 0-3.312-.41-4.85-1.2l2.594-2.617zM12 1.703c1.68 0 3.29.41 4.824 1.225l-2.592 2.616C13.488 5.28 12.744 5.16 12 5.16c-.768 0-1.512.12-2.256.384L7.15 2.928C8.69 2.112 10.297 1.703 12 1.703zM18.84 12c0-.744-.12-1.488-.384-2.232l2.616-2.592c.816 1.536 1.225 3.144 1.225 4.825 0 1.704-.41 3.312-1.225 4.85l-2.616-2.594c.264-.744.384-1.488.384-2.255z"/></g></g></svg>