<?xml version="1.0" encoding="UTF-8" standalone="no"?>
<svg width="92px" height="117px" viewBox="0 0 92 117" version="1.1" xmlns="http://www.w3.org/2000/svg" xmlns:xlink="http://www.w3.org/1999/xlink" xmlns:sketch="http://www.bohemiancoding.com/sketch/ns">
    <!-- Generator: Sketch 3.2.2 (9983) - http://www.bohemiancoding.com/sketch -->
    <title>Group</title>
    <desc>Created with Sketch.</desc>
    <defs></defs>
    <g id="Page-1" stroke="none" stroke-width="1" fill="none" fill-rule="evenodd" sketch:type="MSPage">
        <g id="Group" sketch:type="MSLayerGroup" transform="translate(0.000000, 1.000000)">
            <g id="paper" transform="translate(0.000000, 20.000000)" stroke="#0A83F6" stroke-width="2" fill="#FFFFFF" sketch:type="MSShapeGroup">
                <rect x="0" y="0" width="72" height="96" rx="2"></rect>
            </g>
            <g id="paper" transform="translate(10.000000, 10.000000)" stroke="#0A83F6" stroke-width="2" fill="#FFFFFF" sketch:type="MSShapeGroup">
                <rect x="0" y="0" width="72" height="96" rx="2"></rect>
            </g>
            <g id="paper-top" transform="translate(20.000000, 0.000000)" sketch:type="MSShapeGroup">
                <path d="M0,2.00509644 C0,0.897712252 0.892315254,0 1.9968516,0 L49,0 L49,23 L72,23 L72,94.0095667 C72,95.1088526 71.1026867,96 69.9991611,96 L2.00083888,96 C0.895806078,96 0,95.1109385 0,93.9949036 L0,2.00509644 Z" id="paper" stroke="#0A83F6" stroke-width="2" fill="#FFFFFF"></path>
                <rect id="Rectangle-3" fill="#FFFFFF" x="49" y="1" width="21" height="22"></rect>
                <path d="M48,1 L70.627417,23.627417" id="corner" stroke="#0A83F6" stroke-width="2" stroke-linecap="square"></path>
            </g>
            <g id="ss-cloud" transform="translate(30.000000, 31.000000)" sketch:type="MSShapeGroup">
                <path d="M45.7,16.9 L45.7,16 C45.7,7.5 38.6,0 30.1,0 C23.9,0 18.8,4.1 16.3,9.3 C15.1,8.4 13.6,7.8 11.9,7.8 C8,7.9 4.8,11 4.8,15 C4.8,15.7 4.9,16.5 5.1,17.1 C2,18.9 0,22.3 0,26.1 C0,31.8 4.3,36.9 10,37 L42.1,37 C47.8,37 52,32 52,26.4 C52,22.1 49.4,18.5 45.7,16.9 L45.7,16.9 Z" id="Shape" stroke="#0A83F6" fill="#0A83F6"></path>
                <g id="product-icon-ss" transform="translate(11.000000, 14.000000)" fill="#FFFFFF">
                    <path d="M11.6,6 L12.5,9 L17,9 L17,6 L11.6,6 Z M18,6 L18,9 L21.8,9 L22.8,6 L18,6 Z M27,1.7 L26.7,1.7 C26.2,1.7 25.8,2 25.7,2.5 L25.5,3 L9.3,3 L8.7,0.9 C8.6,0.4 8.1,0 7.6,0 L2,0 C1.4,0 0.9,0.5 0.9,1.1 C0.9,1.7 1.3,2 1.9,2 L6.6,2 L9.2,11.2 C9.3,11.7 9.8,12 10.3,12 L23.6,12 C24.1,12 24.5,11.8 24.6,11.3 L27.4,3.2 C27.4,3.1 27.5,2.9 27.5,2.8 C27.6,2.3 27.4,1.9 27,1.7 L27,1.7 Z M23,10 L10.9,10 L9.8,5 L24.8,5 L23,10 L23,10 Z" id="Shape"></path>
                    <circle id="Oval" cx="13" cy="15" r="2"></circle>
                    <circle id="Oval" cx="21" cy="15" r="2"></circle>
                </g>
            </g>
        </g>
    </g>
</svg>