<svg xmlns="http://www.w3.org/2000/svg" width="52" height="38" viewBox="0 0 52 38">
  <g fill="none">
    <path fill="#7355A6" d="M45.6639673,17.0187568 L45.6639673,16.1124324 C45.6639673,7.5527027 38.5695654,0 30.0762673,0 C23.8811558,0 18.7851769,4.12881081 16.2871481,9.36535135 C15.0880942,8.45902703 13.5892769,7.85481081 11.8906173,7.85481081 C7.99369231,7.95551351 4.79621538,11.0772973 4.79621538,15.1054054 C4.79621538,15.8103243 4.89613654,16.6159459 5.09597885,17.2201622 C1.99842308,19.0328108 0,22.4567027 0,26.2834054 C0,32.0234595 4.29660962,37.1592973 9.99211538,37.26 L42.0668058,37.26 C47.7623115,37.26 51.959,32.2248649 51.959,26.5855135 C51.959,22.2552973 49.36105,18.63 45.6639673,17.0187568 Z"/>
    <path fill="#FFF" d="M17.885,17.89 L17.885,15.503 L31.145,15.503 L31.145,15.898 C31.665,15.461 32.078,15.073 32.492,14.708 C32.195,14.254 31.682,13.966 31.094,13.966 L17.92,13.966 C16.998,13.966 16.195,14.676 16.195,15.583 L16.195,19.475 L17.842,17.893 L17.885,17.891 L17.885,17.89 Z M17.885,28.44 L17.885,24.44 C17.365,23.922 16.845,23.386 16.195,22.836 L16.195,28.564 C16.195,29.472 16.998,30.234 17.92,30.234 L23.335,30.234 C22.852,29.722 22.327,29.082 21.758,28.441 L17.885,28.441 L17.885,28.44 Z M40.433,11.45 C40.173,11.22 39.995,11.092 39.9,11.065 C39.804,11.037 39.727,11.025 39.674,11.025 L39.242,11.308 C38.926,11.483 38.399,11.882 37.659,12.503 L34.964,14.753 C33.909,15.63 32.496,16.893 30.729,18.541 C28.961,20.191 27.049,22.027 24.992,24.051 L19.112,18.987 L16.912,21.155 C21.297,25.478 24.478,28.855 26.452,31.285 L28.817,27.659 C33.614,20.527 37.725,15.462 41.154,12.464 C40.934,12.018 40.694,11.681 40.432,11.451 L40.433,11.45 Z M31.145,28.44 L30,28.44 C29.998,28.44 29.995,28.483 29.992,28.487 L28.874,30.235 L31.094,30.235 C32.014,30.235 32.704,29.472 32.704,28.565 L32.704,24.5 C32.184,25.233 31.664,25.995 31.144,26.784 L31.144,28.439 L31.145,28.44 Z"/>
  </g>
</svg>
