<svg xmlns="http://www.w3.org/2000/svg" viewBox="0 0 399.62 284.34"><title>product-icon-gov</title><path d="M303.63,562.85v-6.92c0-65.32-54.56-123-119.89-123-47.65,0-86.84,31.51-106.05,71.47a56.05,56.05,0,0,0-33.81-11.53c-30,.77-54.56,24.59-54.56,55.33a54.61,54.61,0,0,0,2.31,16.14c-23.82,13.83-39.19,40-39.19,69.16,0,43.8,33,83,76.85,83.77H276c43.8,0,76.08-38.42,76.08-81.46C352,602.81,332.06,575.15,303.63,562.85Z" transform="translate(47.57 -432.98)" fill="#d85071"/><path d="M90,654V622.77c-4-4.05-8-8.23-13-12.53V655a13.39,13.39,0,0,0,13.27,13h41.66c-3.71-4-7.76-9-12.13-14H90Z" transform="translate(47.57 -432.98)" fill="#fff"/><path d="M90,571.64V553H192v3.08c4-3.41,7.18-6.44,10.36-9.28a12.65,12.65,0,0,0-10.75-5.8H90.27C83.18,541,77,546.53,77,553.62V584l12.67-12.35H90Z" transform="translate(47.57 -432.98)" fill="#fff"/><path d="M192,654h-8.8s0,0.32-.07.36L174.53,668h17.08c7.09,0,12.39-6,12.39-13V623.25q-6,8.59-12,17.83V654Z" transform="translate(47.57 -432.98)" fill="#fff"/><path d="M263.45,521.36c-2-1.79-3.37-2.79-4.11-3a6.73,6.73,0,0,0-1.74-.32l-3.32,2.21q-3.65,2.06-12.17,9.33l-20.72,17.56q-12.18,10.28-32.58,29.58t-44.14,43L99.45,580.19,82.52,597.12q50.6,50.61,73.39,79.08l18.19-28.31q55.35-83.51,94.9-118.62A25.5,25.5,0,0,0,263.45,521.36Z" transform="translate(47.57 -432.98)" fill="#fff"/></svg>