<svg width="15" height="16" viewBox="0 0 15 16" xmlns="http://www.w3.org/2000/svg"><g fill="none" fill-rule="evenodd"><g fill="#c6ccd7"><path d="M14.883 13.34L11.57 9.83c.54-.984.82-2.08.82-3.183 0-3.58-2.78-6.493-6.195-6.493C2.78.154 0 3.068 0 6.647c0 3.58 2.78 6.494 6.195 6.494 1.09 0 2.168-.314 3.13-.915l3.296 3.5c.075.076.18.125.286.125.106 0 .21-.045.285-.126l1.693-1.79c.156-.168.156-.43 0-.593zM6.195 2.684c2.086 0 3.782 1.778 3.782 3.964 0 2.187-1.696 3.964-3.782 3.964-2.086 0-3.78-1.776-3.78-3.963 0-2.186 1.694-3.964 3.78-3.964z"/></g></g></svg>
