<svg width="16" height="16" viewBox="0 0 16 16" xmlns="http://www.w3.org/2000/svg"><g fill="none" fill-rule="evenodd"><path d="M2.667 10.667C1.195 10.667 0 11.862 0 13.333 0 14.805 1.195 16 2.667 16c1.472 0 2.666-1.195 2.666-2.667 0-1.47-1.194-2.666-2.666-2.666zm0-5.334s-1.334.042-1.334 1.334C1.333 7.957 2.667 8 2.667 8 5.612 8 8 10.388 8 13.333c0 0 0 1.334 1.333 1.334 1.334 0 1.334-1.334 1.334-1.334 0-4.416-3.583-8-8-8zm0-5.333S1.333 0 1.333 1.333c0 1.334 1.334 1.334 1.334 1.334 5.89 0 10.666 4.776 10.666 10.666 0 0 0 1.334 1.334 1.334C16 14.667 16 13.333 16 13.333 16 5.97 10.03 0 2.667 0z" fill="#fff"/></g></svg>
