<?xml version="1.0" encoding="UTF-8" standalone="no"?>
<svg width="44px" height="43px" viewBox="0 0 44 43" version="1.1" xmlns="http://www.w3.org/2000/svg" xmlns:xlink="http://www.w3.org/1999/xlink" xmlns:sketch="http://www.bohemiancoding.com/sketch/ns">
    <!-- Generator: Sketch 3.4 (15575) - http://www.bohemiancoding.com/sketch -->
    <title>Page 1</title>
    <desc>Created with Sketch.</desc>
    <defs>
        <path id="path-1" d="M0,0.3 L43.4386667,0.3 L43.4386667,42.6666667 L0,42.6666667"></path>
    </defs>
    <g id="Page-1" stroke="none" stroke-width="1" fill="none" fill-rule="evenodd" sketch:type="MSPage">
        <g sketch:type="MSLayerGroup">
            <mask id="mask-2" sketch:name="Clip 2" fill="white">
                <use xlink:href="#path-1"></use>
            </mask>
            <g id="Clip-2"></g>
            <path d="M21.718,0.300533333 C9.72466667,0.300533333 0.000666666667,10.0245333 0.000666666667,22.0205333 C0.000666666667,31.6165333 6.22333333,39.7565333 14.854,42.6298667 C15.9406667,42.8285333 16.3366667,42.1578667 16.3366667,41.5818667 C16.3366667,41.0672 16.318,39.7005333 16.3073333,37.8885333 C10.266,39.2005333 8.99133333,34.9765333 8.99133333,34.9765333 C8.00333333,32.4685333 6.57933333,31.7992 6.57933333,31.7992 C4.60733333,30.4525333 6.72866667,30.4792 6.72866667,30.4792 C8.90866667,30.6325333 10.0553333,32.7178667 10.0553333,32.7178667 C11.9926667,36.0365333 15.1393333,35.0778667 16.3766667,34.5232 C16.574,33.1192 17.134,32.1618667 17.7553333,31.6192 C12.9326667,31.0712 7.862,29.2072 7.862,20.8845333 C7.862,18.5138667 8.70866667,16.5752 10.098,15.0565333 C9.874,14.5072 9.12866667,12.2992 10.31,9.30853333 C10.31,9.30853333 12.134,8.72453333 16.2833333,11.5352 C18.0153333,11.0525333 19.874,10.8125333 21.7206667,10.8045333 C23.5646667,10.8125333 25.4233333,11.0525333 27.158,11.5352 C31.3046667,8.72453333 33.1246667,9.30853333 33.1246667,9.30853333 C34.31,12.2992 33.5646667,14.5072 33.3406667,15.0565333 C34.7326667,16.5752 35.574,18.5138667 35.574,20.8845333 C35.574,29.2285333 30.4953333,31.0645333 25.6566667,31.6018667 C26.4366667,32.2725333 27.1313333,33.5978667 27.1313333,35.6245333 C27.1313333,38.5272 27.1046667,40.8698667 27.1046667,41.5818667 C27.1046667,42.1632 27.4953333,42.8392 28.598,42.6272 C37.222,39.7485333 43.4393333,31.6138667 43.4393333,22.0205333 C43.4393333,10.0245333 33.714,0.300533333 21.718,0.300533333" id="Fill-1" fill="#FEFEFE" sketch:type="MSShapeGroup" mask="url(#mask-2)"></path>
        </g>
    </g>
</svg>