<svg width="16" height="16" viewBox="0 0 16 16" xmlns="http://www.w3.org/2000/svg">
    <title>Icon Go</title>
    <g fill="none" fill-rule="evenodd">
        <circle fill="#B2CE4C" cx="8" cy="8" r="8"/>
        <path d="M2.986 7.976c0-1.09.25-1.91.752-2.457.5-.548 1.224-.82 2.17-.82.534 0 .99.09 1.368.275.38.184.67.427.878.73.07.11.104.214.104.31 0 .135-.05.25-.148.347-.098.098-.218.146-.357.146-.14 0-.268-.062-.383-.187-.204-.22-.417-.384-.64-.49-.224-.107-.498-.16-.823-.16-.617 0-1.072.19-1.365.572-.293.38-.44.96-.44 1.734 0 .808.145 1.393.433 1.754.29.362.746.543 1.372.543.68 0 1.194-.178 1.54-.534V8.695h-1.27c-.132 0-.244-.047-.336-.142-.092-.094-.138-.206-.138-.337 0-.13.046-.242.14-.335.09-.092.203-.14.334-.14h1.81c.133 0 .252.05.357.15.105.098.157.213.157.343V9.73c0 .198-.053.362-.16.492-.224.3-.562.547-1.014.736-.45.19-.924.285-1.42.285-1.947 0-2.92-1.09-2.92-3.267zm6.248 1.016c0-.747.18-1.31.537-1.684.36-.375.863-.563 1.51-.563s1.15.188 1.506.563c.357.375.536.937.536 1.684 0 .744-.18 1.304-.538 1.68-.36.375-.86.562-1.504.562s-1.146-.187-1.506-.563c-.36-.374-.54-.934-.54-1.678zm1.02 0c0 .456.087.8.26 1.032.174.233.43.35.766.35.337 0 .592-.117.766-.35.173-.232.26-.576.26-1.032 0-.927-.342-1.39-1.026-1.39-.684 0-1.025.463-1.025 1.39z" fill="#FFF"/>
    </g>
</svg>
