<svg width="21" height="24" viewBox="0 0 21 24" xmlns="http://www.w3.org/2000/svg"><g fill="none" fill-rule="evenodd"><g fill="#0A83F6"><path d="M.392 23.616c.246.264.564.384.93.384h18.355c.368 0 .687-.12.93-.384.27-.24.393-.553.393-.912V8.568h-7.425c-.366 0-.685-.12-.93-.384-.27-.24-.393-.552-.393-.912V0H1.322C.957 0 .64.12.393.384.122.624 0 .936 0 1.296v21.408c0 .36.123.672.392.912zm4.853-6.05c0-.118.05-.238.122-.31.073-.072.196-.12.32-.12h9.63c.12 0 .243.048.317.12.073.072.123.192.123.31v.865c0 .122-.05.242-.123.314-.074.07-.196.12-.318.12h-9.63c-.123 0-.246-.05-.32-.12-.072-.072-.12-.192-.12-.313v-.863zm0-3.43c0-.12.05-.24.122-.312.073-.073.196-.12.32-.12h9.63c.12 0 .243.047.317.12.073.072.123.192.123.312V15c0 .12-.05.24-.123.31-.074.074-.196.122-.318.122h-9.63c-.123 0-.246-.048-.32-.12-.072-.072-.12-.192-.12-.312v-.864zm0-3.432c0-.12.05-.24.122-.312.073-.072.196-.12.32-.12h9.63c.12 0 .243.048.317.12.073.072.123.192.123.312v.864c0 .12-.05.24-.123.312-.074.072-.196.12-.318.12h-9.63c-.123 0-.246-.048-.32-.12-.072-.072-.12-.192-.12-.312v-.864zm15.216-3.84c-.146-.217-.268-.36-.39-.504L14.506.912c-.148-.12-.294-.264-.49-.384v6.336h6.444z"/></g></g></svg>